<?xml version="1.0" encoding="utf-8"?>
<!-- Generator: Adobe Illustrator 17.1.0, SVG Export Plug-In . SVG Version: 6.00 Build 0)  -->
<!DOCTYPE svg PUBLIC "-//W3C//DTD SVG 1.1//EN" "http://www.w3.org/Graphics/SVG/1.1/DTD/svg11.dtd">
<svg version="1.1" id="Layer_1" xmlns="http://www.w3.org/2000/svg" xmlns:xlink="http://www.w3.org/1999/xlink" x="0px" y="0px"
	 viewBox="0 0 1026.489 763.168" enable-background="new 0 0 1026.489 763.168" xml:space="preserve">
<path d="M380.224,529.614c-0.036-8.95-2.705-15.821-8.325-21.611c-1.004-1.034-1.327-2.731-1.965-4.121
	c1.627-0.583,3.53-2.021,4.832-1.6c5.172,1.674,10.463,3.422,15.068,6.205c1.985,1.2,3.196,4.934,3.374,7.609
	c0.368,5.534,0.92,6.372,6.378,6.006c1.714-0.115,3.469,0.393,6.237,0.747c-2.31,2.446-3.614,3.826-5.721,6.057
	c3.622,0.972,6.448,1.624,9.205,2.494c5.044,1.592,10.154,3.052,15.039,5.051c5.593,2.289,9.385,6.004,8.945,12.874
	c-0.253,3.954,2.056,5.558,6.184,4.839c1.977-0.344,4.13,0.326,6.204,0.537c0.019,0.562,0.038,1.124,0.056,1.686
	c-1.33,1.137-2.661,2.273-4.375,3.738c6.131,3.755,4.316,8.435,1.491,12.798c-2.24,3.46-5.044,6.582-7.83,9.644
	c-0.744,0.818-2.584,1.452-3.471,1.085c-0.793-0.328-1.096-2.125-1.369-3.329c-0.216-0.951-0.006-1.991-0.074-2.985
	c-0.575-8.404-5.404-10.816-12.347-6.171c-0.967,0.647-1.98,1.266-2.818,2.06c-3.029,2.871-5.942,2.9-8.379-0.554
	c-1.368-1.939-2.229-4.237-3.318-6.373c1.967-0.948,3.842-2.329,5.917-2.771c9.281-1.974,10.344-4.054,6.048-12.79
	c-0.66-1.342-1.255-2.744-2.113-3.954c-2.473-3.485-4.448-3.405-6.7,0.155c-0.533,0.842-0.941,1.778-1.56,2.547
	c-2.765,3.433-4.684,2.793-6.905-1.025c-2.108-3.623-4.938-6.964-7.992-9.857c-2.551-2.418-5.508-2.105-7.425,1.385
	c-0.16,0.291-0.314,0.618-0.558,0.824c-2.245,1.892-2.134,6.979-7.143,5.142c-5.289-1.94-9.925-7.205-9.215-11.698
	c0.247-1.563,2.649-3.524,4.397-3.95C373.129,529.544,376.512,529.804,380.224,529.614z"/>
<path d="M261.371,232.965c-1.243-9.179-3.102-17.33-3.159-25.493c-0.033-4.68-0.625-8.878-1.991-13.211
	c-0.35-1.111,0.527-2.608,0.84-3.928c1.446,0.424,3.494,0.389,4.232,1.355c2.823,3.693,5.199,7.726,7.792,11.599
	c3.758,5.613,6.578,11.505,6.858,18.466c0.182,4.524,2.159,7.521,7.483,7.235c1.392-0.075,2.867,1.38,4.649,2.312
	c-6.649,5.072-6.549,4.991-1.691,11.009c6.651,8.24,7.911,18.559,10.35,28.359c0.705,2.831-1.623,3.72-3.699,2.09
	c-2.982-2.341-5.83-4.986-8.224-7.918c-6.06-7.422-11.835-15.077-18.094-23.114c-1.505,1.755-2.794,4.002-4.725,5.282
	c-1.622,1.076-4.398,1.947-5.938,1.267c-2.601-1.148-5.279-3.206-6.713-5.605c-1.406-2.353-1.301-5.608-1.859-8.468
	c2.355-0.412,4.696-0.99,7.069-1.192C256.986,232.804,259.453,232.965,261.371,232.965z"/>
<path d="M341.915,443.152c-1.297,1.147-1.865,1.7-2.485,2.189c-5.173,4.076-4.424,3.802-1.495,9.567
	c2.605,5.126,3.732,11.176,4.582,16.955c0.495,3.367-3.513,5.008-7.027,2.654c-3.542-2.373-6.686-5.459-9.612-8.597
	c-2.36-2.531-4.682-5.368-6.044-8.494c-2.033-4.665-4.61-4.684-8.65-2.783c-4.003,1.884-8.546,5.52-12.416,0.129
	c-1.42-1.978-2.409-5.443-1.633-7.484c0.764-2.01,3.838-3.816,6.214-4.375c3.297-0.777,7.949,0.975,10.037-0.753
	c1.863-1.542,1.021-6.34,1.393-9.7c0.73-6.608,1.366-13.228,2.277-19.811c0.266-1.919,0.949-4.023,2.111-5.522
	c1.955-2.522,4.712-3.179,6.337,0.248c3.957,8.346,9.111,16.416,6.598,26.482c-1.023,4.099-0.171,7.331,5.276,7.188
	C338.69,441.01,340.035,442.237,341.915,443.152z"/>
<path d="M129.006,281.162c-2.779,1.86-5.06,3.812-7.686,5c-1.876,0.849-5.077,1.669-6.16,0.734
	c-1.905-1.645-3.215-4.559-3.589-7.114c-0.153-1.048,2.609-2.857,4.337-3.762c2.309-1.21,4.902-1.878,7.798-2.934
	c-3.39-5.424-6.712-10.318-9.585-15.462c-2.585-4.628-4.906-9.44-6.849-14.367c-0.578-1.466,0.513-3.59,0.84-5.413
	c1.705,0.675,3.697,0.992,5.062,2.089c4.396,3.536,8.629,7.285,12.794,11.094c3.406,3.115,6.424,6.684,10.003,9.569
	c2.262,1.823,5.192,2.868,7.914,4.049c1.386,0.601,2.976,0.732,4.473,1.076c-0.529,1.302-1.296,2.561-1.533,3.914
	c-0.39,2.229-1.054,4.684-0.5,6.747c1.147,4.272,3.151,8.306,4.56,12.519c1.684,5.033,3.24,10.119,4.58,15.253
	c0.417,1.596-0.047,3.422-0.108,5.143c-1.666-0.4-3.961-0.239-4.895-1.29c-6.387-7.18-12.519-14.587-18.651-21.99
	C130.789,284.782,130.171,283.21,129.006,281.162z"/>
<path d="M718.132,143.243c-1.054-4.305-2.318-7.925-2.757-11.643c-0.599-5.072-0.72-10.218-0.697-15.331
	c0.005-1.189,1.33-3.274,2.201-3.358c1.551-0.15,3.8,0.43,4.734,1.554c3.397,4.091,6.529,8.432,9.425,12.896
	c1.118,1.723,1.6,3.988,1.913,6.075c0.617,4.118,2.471,6.293,6.95,5.983c1.667-0.115,3.4,0.724,6.349,1.424
	c-1.929,1.483-2.536,1.973-3.167,2.431c-7.242,5.256-5.1,5.47-3.081,11.112c2.584,7.221,3.235,15.239,3.925,22.984
	c0.282,3.161-2.915,4.211-5.335,2.155c-3.378-2.869-6.726-6.029-9.164-9.68c-2.745-4.111-4.642-8.832-6.572-13.428
	c-1.467-3.495-3.284-4.369-6.356-1.941c-0.915,0.723-1.882,1.379-2.815,2.078c-2.414,1.808-4.453,4.92-7.734,0.756
	c-3.478-4.414-4.893-10.733-2.071-13.179c0.943-0.817,2.756-0.798,4.184-0.852C711.149,143.162,714.244,143.243,718.132,143.243z"/>
<path d="M190.839,546.438c-1.054-4.305-2.318-7.925-2.757-11.643c-0.599-5.072-0.72-10.218-0.697-15.331
	c0.005-1.189,1.33-3.274,2.201-3.358c1.551-0.15,3.8,0.43,4.734,1.554c3.397,4.091,6.529,8.432,9.425,12.896
	c1.118,1.723,1.6,3.988,1.913,6.075c0.617,4.118,2.471,6.293,6.95,5.983c1.667-0.115,3.4,0.724,6.349,1.424
	c-1.929,1.483-2.536,1.973-3.167,2.431c-7.242,5.256-5.1,5.47-3.081,11.112c2.584,7.221,3.235,15.239,3.925,22.984
	c0.282,3.161-2.915,4.211-5.335,2.155c-3.378-2.869-6.726-6.029-9.164-9.68c-2.745-4.111-4.642-8.832-6.572-13.428
	c-1.467-3.495-3.284-4.369-6.356-1.941c-0.915,0.723-1.882,1.379-2.815,2.078c-2.414,1.808-4.453,4.92-7.734,0.756
	c-3.478-4.414-4.893-10.733-2.071-13.179c0.943-0.817,2.756-0.798,4.184-0.852C183.856,546.356,186.95,546.438,190.839,546.438z"/>
<path d="M363.055,109.12c-7.426,6.411-7.144,6.232-2.418,13.649c4.086,6.412,4.557,13.915,3.723,21.237
	c-0.402,3.528-3.784,3.322-5.636,1.173c-5.836-6.771-11.814-13.526-16.687-20.975c-2.529-3.866-4.425-4.737-8.262-2.878
	c-2.239,1.085-4.602,1.939-6.963,2.739c-3.234,1.096-5.183-0.585-6.108-3.444c-0.98-3.03,0.593-4.725,3.512-5.384
	c2.921-0.659,5.818-1.468,8.768-1.946c3.501-0.568,4.142-2.478,3.552-5.678c-2.006-10.884-0.697-21.637,1.911-32.248
	c0.375-1.526,2.026-2.739,3.086-4.097c1.228,1.162,2.928,2.099,3.607,3.523c4.031,8.445,7.545,17.035,6.412,26.778
	c-0.474,4.072,1.471,6.157,5.809,6.144C359.257,107.706,361.157,108.623,363.055,109.12z"/>
<path d="M640.133,627.504c-7.426,6.411-7.144,6.232-2.418,13.648c4.086,6.412,4.557,13.915,3.723,21.237
	c-0.402,3.528-3.784,3.322-5.636,1.173c-5.836-6.771-11.814-13.526-16.687-20.975c-2.529-3.866-4.425-4.737-8.262-2.878
	c-2.239,1.085-4.602,1.939-6.963,2.739c-3.234,1.096-5.183-0.585-6.108-3.444c-0.98-3.03,0.593-4.725,3.512-5.384
	c2.921-0.659,5.818-1.468,8.768-1.946c3.501-0.568,4.142-2.478,3.552-5.678c-2.006-10.884-0.697-21.637,1.911-32.248
	c0.375-1.526,2.026-2.739,3.086-4.097c1.228,1.162,2.928,2.099,3.607,3.523c4.031,8.445,7.545,17.035,6.412,26.778
	c-0.474,4.072,1.471,6.157,5.809,6.144C636.335,626.09,638.235,627.006,640.133,627.504z"/>
<path d="M568.91,433.826c-2.538,1.642-4.967,3.213-7.418,4.799c5.143,7.252,5.273,8.532,0.512,15.815
	c-2.628,4.021-5.518,7.922-8.723,11.488c-1.175,1.307-3.6,1.491-5.455,2.187c-0.577-1.908-1.717-3.849-1.61-5.718
	c0.197-3.453,1.642-6.875,1.57-10.289c-0.049-2.341-1.209-5.503-2.96-6.677c-1.239-0.831-4.298,1.047-6.54,1.729
	c-0.148,0.045-0.251,0.221-0.395,0.299c-2.823,1.543-4.766,5.811-9.006,2.997c-3.772-2.503-6.438-9.713-4.708-13.84
	c0.535-1.276,2.559-2.488,4.037-2.678c2.247-0.288,4.625,0.608,6.922,0.494c1.783-0.089,4.973-0.83,5.03-1.494
	c0.203-2.398,0.12-5.569-1.298-7.175c-1.977-2.241-5.361-3.181-7.926-4.987c-1.37-0.965-2.552-2.437-3.341-3.932
	c-1.414-2.682,0.147-4.69,2.67-4.258c8.117,1.388,16.223,3.043,24.126,5.314c1.498,0.43,3.146,4.337,2.818,6.324
	c-0.787,4.764,1.166,6.054,5.282,6.112C565.284,430.374,568.394,430.023,568.91,433.826z"/>
<path d="M147.643,451.621c-3.986-7.985-7.186-14.177-10.134-20.487c-0.596-1.277-0.235-3.001-0.316-4.518
	c1.578,0.103,3.451-0.307,4.685,0.399c5.487,3.139,11.128,6.178,16.032,10.104c2.792,2.235,3.778,6.661,6.489,9.078
	c2.468,2.201,6.166,3.023,10.684,5.07c-8.095,3.513-6.826,8.183-4.026,13.483c0.922,1.745,0.798,4.257,0.569,6.355
	c-0.74,6.784-1.567,13.571-2.777,20.282c-0.326,1.811-2.128,3.357-3.252,5.024c-1.597-1.414-4.028-2.533-4.651-4.292
	c-3.273-9.239-6.237-18.596-8.984-28.007c-1.002-3.434-2.125-4.948-5.875-3.3c-2.079,0.914-4.606,0.753-6.798,1.481
	c-4.46,1.481-6.608-0.426-7.568-4.575c-1.049-4.53,0.166-6.061,4.961-6.093C139.899,451.603,143.117,451.621,147.643,451.621z"/>
<path d="M780.388,61.388c-3.986-7.985-7.186-14.177-10.134-20.487c-0.596-1.277-0.235-3.001-0.316-4.518
	c1.578,0.103,3.451-0.307,4.685,0.399c5.487,3.139,11.128,6.178,16.032,10.104c2.792,2.235,3.778,6.661,6.489,9.078
	c2.468,2.201,6.166,3.023,10.684,5.07c-8.095,3.513-6.826,8.183-4.026,13.483c0.922,1.745,0.797,4.257,0.569,6.355
	c-0.74,6.784-1.567,13.571-2.777,20.282c-0.327,1.811-2.128,3.357-3.253,5.024c-1.597-1.414-4.028-2.533-4.651-4.292
	c-3.273-9.239-6.237-18.596-8.984-28.007c-1.002-3.434-2.125-4.948-5.875-3.3c-2.079,0.914-4.606,0.753-6.797,1.481
	c-4.46,1.481-6.608-0.426-7.568-4.575c-1.049-4.53,0.166-6.061,4.961-6.093C772.645,61.37,775.862,61.388,780.388,61.388z"/>
<path d="M861.634,432.358c-4.635-14.423-7.68-27.901,0.204-42.078c1.691,2.131,3.627,3.666,4.353,5.645
	c2.853,7.775,5.648,15.603,7.814,23.588c1.251,4.611,2.412,7.901,8.204,6.48c1.306-0.32,2.983,0.869,5.499,1.694
	c-1.978,1.305-2.811,1.807-3.594,2.379c-4.683,3.415-4.369,4.247-1.271,9.257c3.724,6.023,6.662,12.543,9.75,18.94
	c0.58,1.201,0.262,2.835,0.384,4.637c-10.995-2.185-18.305-8.414-23.921-17.088c-4.396-6.791-4.456-6.752-10.627-1.74
	c-4.811,3.907-8.599,2.773-10.632-3.181c-1.574-4.612-0.48-6.223,4.5-6.909C855.206,433.579,858.088,432.982,861.634,432.358z"/>
<path d="M512.475,199.826c2.363,8.2,2.9,15.09,1.917,21.929c-1.249,8.691-1.544,8.633,6.677,11.691
	c0.716,0.266,1.294,0.903,2.317,1.644c-1.153,0.679-1.916,1.242-2.764,1.611c-7.493,3.261-7.41,3.728-6.095,11.58
	c1.343,8.023,1.934,16.177,2.667,24.291c0.1,1.107-0.834,3.255-1.377,3.284c-1.295,0.07-2.985-0.492-3.915-1.408
	c-8.156-8.041-12.432-18.025-13.639-29.266c-0.666-6.201-1.073-6.608-6.899-4.178c-2.517,1.05-5.199,3.861-7.863,0.022
	c-2.36-3.401-2.419-10.286,0.339-12.587c0.866-0.722,2.779-0.585,4.091-0.293c2.748,0.611,5.406,1.614,8.122,2.383
	c0.414,0.117,0.94-0.161,1.64-0.301C497.238,218.089,502.48,208.696,512.475,199.826z"/>
<path d="M721.74,578.932c-1.255,1.649-1.404,1.973-1.655,2.158c-6.775,4.983-6.248,4.758-2.938,12.64
	c3.074,7.321,4.925,15.166,7.115,22.837c0.274,0.96-0.597,3.2-1.073,3.24c-1.321,0.112-3.017-0.255-4.031-1.085
	c-8.093-6.626-14.765-14.563-18.969-24.115c-2.009-4.565-4.071-4.988-7.849-2.809c-1.439,0.83-2.952,1.901-4.511,2.055
	c-1.774,0.175-4.312,0.051-5.289-1.042c-1.211-1.354-1.859-4.003-1.433-5.778c0.331-1.382,2.527-2.849,4.157-3.275
	c3.13-0.818,6.447-0.924,8.427-1.169c0-9.598-0.056-18.281,0.05-26.962c0.02-1.626,0.423-3.375,1.138-4.826
	c0.67-1.36,1.989-2.4,3.023-3.58c1.154,1.013,2.895,1.808,3.367,3.076c2.88,7.74,5.643,15.535,8.073,23.425
	c0.963,3.127,2.545,4.343,5.686,4.31C716.965,578.012,718.911,578.53,721.74,578.932z"/>
<path d="M859.626,545.549c-9.969,6.005-9.41,5.756-4.895,15.916c3.061,6.89,4.339,14.584,6.228,21.966
	c0.195,0.763-0.833,2.592-1.388,2.632c-1.071,0.078-2.81-0.477-3.203-1.289c-1.073-2.212-1.437-4.755-2.358-7.057
	c-1.661-4.152-2.895-8.732-9.369-7.011c-1.38,0.367-4.17-1.503-5.076-3.06c-1.889-3.249-3.182-6.907-4.296-10.528
	c-1.286-4.181-2.281-4.719-5.679-2.216c-0.535,0.394-0.991,0.933-1.574,1.219c-2.366,1.162-4.838,3.26-7.136,3.099
	c-2.585-0.181-5.358-7.971-4.718-11.152c1.603-7.963,2.017-8.186,9.825-5.554c2.015,0.679,4.069,1.245,5.466,1.67
	c0.894-5.262,1.678-10.185,2.607-15.079c0.174-0.916,0.899-2.445,1.422-2.467c5.74-0.244,5.448-3.728,5.259-8.048
	c-0.067-1.532,2.883-3.197,4.456-4.801c1.031,1.687,2.83,3.32,2.95,5.07c0.38,5.538,0.463,11.144,0.033,16.676
	c-0.404,5.2,0.56,6.92,5.688,7.929C855.61,543.809,857.251,544.67,859.626,545.549z"/>
<path d="M523.639,533.58c-4.861,2.927-5.686,5.941-1.312,9.805c1.059,0.936,1.301,3.544,0.96,5.183
	c-1.282,6.162-2.699,12.327-4.635,18.306c-0.662,2.045-2.999,3.547-4.571,5.297c-0.67-0.106-1.341-0.211-2.011-0.317
	c-0.784-4.587-1.289-9.245-2.439-13.739c-0.96-3.748-2.492-7.388-4.117-10.916c-1.271-2.76-3.513-2.687-5.793-1.005
	c-1.339,0.988-2.751,1.901-3.974,3.019c-2.398,2.193-5.324,3.228-7.443,0.57c-1.871-2.347-2.881-5.615-3.41-8.628
	c-0.127-0.726,3.034-2.534,4.892-2.985c2.813-0.683,5.809-0.612,8.62-0.853c0.674-11.734-9.719-14.554-16.909-21.926
	c3.836-0.747,6.324-1.901,8.557-1.528c4.898,0.819,9.716,2.254,14.475,3.731c4.558,1.415,7.962,4,8.296,9.396
	c0.184,2.971,2.067,4.22,5.136,4.141c1.772-0.046,3.563,0.656,5.346,1.022C523.418,532.629,523.528,533.104,523.639,533.58z"/>
<path d="M145.168,113.678c-4.861,2.927-5.686,5.941-1.312,9.805c1.059,0.936,1.301,3.544,0.96,5.183
	c-1.282,6.162-2.699,12.327-4.635,18.306c-0.662,2.045-2.999,3.547-4.571,5.297c-0.67-0.106-1.341-0.211-2.011-0.317
	c-0.784-4.587-1.289-9.245-2.439-13.739c-0.96-3.748-2.492-7.388-4.117-10.916c-1.271-2.76-3.513-2.687-5.793-1.005
	c-1.339,0.988-2.751,1.901-3.974,3.019c-2.398,2.193-5.324,3.228-7.443,0.57c-1.871-2.347-2.881-5.615-3.41-8.628
	c-0.127-0.726,3.034-2.534,4.892-2.985c2.813-0.683,5.809-0.612,8.62-0.853c0.674-11.734-9.719-14.554-16.909-21.926
	c3.836-0.747,6.324-1.901,8.557-1.528c4.898,0.819,9.716,2.254,14.475,3.731c4.558,1.415,7.962,4,8.296,9.396
	c0.184,2.971,2.067,4.22,5.136,4.141c1.772-0.046,3.563,0.656,5.346,1.022C144.947,112.727,145.058,113.202,145.168,113.678z"/>
<path d="M676.383,271.743c-1.945-14.228-0.385-26.959,7.159-40.242c4.866,8.717,7.989,16.319,7.757,25.013
	c-0.053,1.987-0.479,3.962-0.614,5.951c-0.285,4.196,1.481,6.525,5.903,6.954c1.777,0.172,3.456,1.358,5.887,2.379
	c-3.608,1.968-5.981,3.262-8.901,4.856c4.047,5.098,4.317,10.16,2.112,15.45c-1.903,4.566-5.061,5.606-8.356,1.998
	c-2.974-3.256-5.282-7.208-7.431-11.102c-2.049-3.714-4.133-4.542-7.241-1.358c-0.346,0.355-0.798,0.605-1.152,0.953
	c-3.014,2.97-5.843,4.917-9.365,0.346c-2.953-3.833-3.81-10.235-0.758-12.747c0.995-0.819,3.108-0.59,4.646-0.377
	C669.394,270.281,672.716,271.041,676.383,271.743z"/>
<path d="M379.232,687.337c1.763-4.874-1.269-8.208-4.164-11.718c-1.139-1.381-1.688-3.248-2.505-4.894
	c2.134-0.464,4.48-1.729,6.358-1.23c4.306,1.145,8.612,2.755,12.459,4.972c1.971,1.136,4.099,3.954,4.156,6.066
	c0.134,4.916,1.629,7.59,6.801,7.649c0.653,0.007,1.297,0.83,3.295,2.201c-1.501,0.771-2.491,1.296-3.494,1.792
	c-2.912,1.439-3.805,3.358-2.02,6.419c0.693,1.188,1.256,3.207,0.716,4.238c-3.676,7.02-7.592,13.919-11.657,20.722
	c-0.406,0.68-2.771,1.038-3.441,0.523c-1.152-0.885-2.355-2.578-2.35-3.928c0.014-3.639,0.845-7.268,0.984-10.915
	c0.111-2.921-0.316-5.862-0.593-10.169c-5.23,3.502-8.446,9.461-13.901,3.703c-4.018-4.241-5.122-9.287-2.264-14.626
	C370.879,682.04,374.942,689.295,379.232,687.337z"/>
<path d="M459.912,178.228c5.806,4.273,6.559,13.877,1.736,18.953c-2.332,2.454-5.565,1.934-7.456-1.165
	c-1.46-2.393-2.734-4.951-4.51-7.088c-3.616-4.351-8.029-4.869-12.849-1.822c-1.263,0.798-2.418,1.766-3.634,2.64
	c-4.691,3.371-7.704,2.856-10.797-1.838c-3.468-5.263-2.092-8.105,4.209-9.002c12.892-1.836,12.07,0.186,9.925-14.764
	c-0.638-4.446-3.594-8.524-5.128-12.897c-0.592-1.687-0.181-3.725-0.228-5.603c1.741,0.119,3.844-0.348,5.159,0.463
	c4.912,3.028,9.986,6.032,14.125,9.965c1.855,1.763,2.223,5.702,2.228,8.655c0.008,4.481,0.57,7.334,6.125,7.231
	C463.218,171.875,463.465,173.496,459.912,178.228z"/>
<path d="M766.365,527.469c-8.734,2.507-6.009,7.284-5.353,13.133c0.881,7.855-1.311,16.133-2.731,24.131
	c-0.57,3.213-4.126,3.414-5.801,0.151c-1.87-3.642-2.825-7.764-4.085-11.707c-1.709-5.349-3.177-10.783-5.12-16.044
	c-0.37-1.002-2.517-1.996-3.747-1.888c-2.095,0.184-4.073,1.601-6.173,1.833c-1.899,0.21-4.573,0.189-5.672-0.936
	c-1.238-1.267-1.955-4.241-1.301-5.803c0.583-1.393,3.264-2.246,5.167-2.664c2.515-0.552,5.174-0.448,9.179-0.723
	c-2.508-5.833-4.775-10.701-6.666-15.711c-0.746-1.976-0.655-4.269-0.945-6.417c2.133,0.341,4.481,0.231,6.351,1.122
	c3.442,1.639,6.941,3.482,9.774,5.972c2.292,2.014,3.485,5.227,5.46,7.671c1.529,1.893,3.341,3.674,5.35,5.023
	c1.463,0.982,3.453,1.18,5.208,1.727C765.627,526.717,765.996,527.093,766.365,527.469z"/>
<path d="M762.462,433.532c-2.652-10.671-5.735-20.108-3.497-30.664c1.139,0.515,2.361,0.704,3,1.417
	c3.886,4.327,7.827,8.632,11.34,13.254c1.304,1.715,1.968,4.243,2.098,6.448c0.213,3.608,0.851,5.855,5.269,4.841
	c1.291-0.296,2.865,0.641,5.3,1.268c-1.895,1.561-2.844,2.382-3.833,3.151c-2.852,2.215-3.772,4.776-2.108,8.268
	c4.608,9.672,1.042,19.286-0.768,28.788c-0.616,3.235-3.401,2.501-4.507-0.016c-2.312-5.26-4.254-10.689-6.184-16.107
	c-1.114-3.125-2.03-6.334-2.814-9.559c-0.777-3.198-2.53-3.552-5.132-2.187c-1.179,0.618-2.301,1.552-3.552,1.782
	c-2.004,0.369-5.333,1.089-5.91,0.215c-1.589-2.408-2.201-5.536-2.744-8.464c-0.071-0.382,2.481-1.644,3.905-1.829
	C755.547,433.721,758.824,433.722,762.462,433.532z"/>
<path d="M556.701,138.203c-2.518,1.579-3.429,2.255-4.428,2.756c-3.522,1.77-5.344,3.603-2.058,7.581
	c0.99,1.198,0.636,4.721-0.443,6.205c-4.978,6.85-12.323,10.485-20.096,13.256c-0.931,0.332-2.938,0.063-3.122-0.427
	c-0.384-1.018-0.283-2.655,0.335-3.533c1.706-2.423,4.329-4.333,5.535-6.935c0.955-2.06,1.24-5.411,0.147-7.115
	c-0.801-1.25-4.349-1.131-6.61-0.927c-1.72,0.155-3.278,1.769-5.022,2.07c-2.078,0.358-5.263,0.857-6.203-0.23
	c-1.52-1.759-2.198-4.813-1.995-7.216c0.082-0.977,3.337-1.913,5.264-2.45c2.229-0.622,4.773-0.367,6.825-1.286
	c1.464-0.655,3.296-2.656,3.244-3.989c-0.066-1.68-1.528-4.029-3.032-4.753c-2.135-1.028-4.924-0.595-7.301-1.259
	c-1.409-0.393-2.566-1.695-3.836-2.588c1.115-0.979,2.156-2.694,3.358-2.815c7.239-0.729,14.511-1.331,21.782-1.468
	c3.192-0.06,5.145,2.017,4.676,5.667c-0.659,5.132,1.794,7.348,6.858,7.41C552.165,136.178,553.738,137.173,556.701,138.203z"/>
<path d="M603.351,504.37c6.99,5.424,13.781,10.882,14.756,20.792c0.139,1.411,2.99,2.794,4.824,3.715
	c1.261,0.633,2.934,0.445,4.797,0.67c-4.421,6.54-3.671,6.098,0.479,13.128c3.646,6.177,5.456,13.462,7.814,20.347
	c0.308,0.901-0.948,2.337-1.992,4.671c-9.004-9.26-17.211-17.701-26.12-26.864c-0.866,0.723-2.933,2.224-4.724,4.002
	c-2.527,2.508-5.098,2.119-6.742-0.441c-1.742-2.713-2.618-5.99-3.677-9.087c-0.028-0.083,2.161-1.221,3.377-1.373
	c2.943-0.367,5.923-0.442,8.637-0.619c-1.506-6.538-2.846-12.786-4.406-18.978C599.376,510.37,599.359,506.867,603.351,504.37z"/>
<path d="M790.873,329.419c-6.578-7.876-6.542-7.788-15.874-3.899c-1.384,0.577-4.176,0.508-4.797-0.355
	c-1.547-2.151-2.612-4.875-2.989-7.496c-0.105-0.734,2.76-2.138,4.433-2.807c1.342-0.537,3.081-0.108,4.393-0.682
	c1.767-0.772,4.426-1.875,4.69-3.228c0.564-2.896-0.114-6.16-3.826-7.11c-2.884-0.738-5.885-1.033-8.747-1.834
	c-1.049-0.294-1.85-1.477-2.764-2.254c0.946-0.755,1.831-2.064,2.847-2.175c5.775-0.628,11.581-1.3,17.377-1.306
	c4.908-0.005,9.734,0.624,9.99,7.631c0.048,1.319,3.352,2.7,5.327,3.714c1.747,0.898,3.737,1.325,5.619,1.959
	c-1.12,1.224-2.071,2.685-3.393,3.623c-2.837,2.012-3.112,4.315-0.845,6.666c3.147,3.264,2.844,6.912,0.673,10.042
	c-3.767,5.431-8.065,10.507-12.356,15.548c-0.755,0.887-2.563,0.878-3.885,1.282c-0.33-1.49-1.283-3.182-0.877-4.434
	C787.295,337.903,789.187,333.654,790.873,329.419z"/>
<path d="M617.024,197.221c-1.263,0.783-2.525,1.566-4.518,2.802c6.597,3.606,8.013,8.725,6.672,14.677
	c-0.359,1.594-1.609,3.997-2.734,4.168c-1.597,0.244-3.64-0.976-5.152-2.05c-1.435-1.02-2.349-2.74-3.633-4.01
	c-6.318-6.25-12.942-9.02-20.947-2.446c-1.145,0.94-4.636,0.724-5.696-0.321c-1.735-1.711-2.62-4.479-3.233-6.957
	c-0.116-0.47,2.603-2.139,4.169-2.432c4.199-0.788,8.482-1.131,12.153-1.58c-0.488-7.029-0.813-13.392-1.411-19.729
	c-0.403-4.266-1.41-8.481-1.698-12.749c-0.105-1.564,1.083-3.216,1.681-4.827c1.371,0.71,3.217,1.074,4.032,2.19
	c3.513,4.813,7.032,9.677,9.894,14.883c1.144,2.08,1.1,5.168,0.718,7.663c-0.919,5.996-0.637,6.61,5.157,7.558
	c1.474,0.241,2.855,1.046,4.278,1.592C616.844,196.175,616.934,196.698,617.024,197.221z"/>
<path d="M137.536,636.618c-1.737-3.763-3.167-6.719-4.461-9.732c-0.519-1.21-1.226-2.638-1.007-3.81
	c0.666-3.564,1.742-7.052,2.659-10.57c2.489,1.982,5.312,3.667,7.391,6.012c3.391,3.824,6.137,8.216,9.493,12.075
	c1.172,1.347,3.285,1.985,5.078,2.652c1.59,0.591,3.332,0.773,4.836,1.099c0,1.001,0.13,1.522-0.019,1.62
	c-4.863,3.216-3.883,6.398-1.356,11.108c3.39,6.318,5.138,13.516,7.77,20.834c-5.609,1.211-9.389-1.093-12.002-3.97
	c-4.428-4.874-8.491-10.256-11.725-15.98c-2.468-4.368-4.472-4.124-8.225-2.019c-2.187,1.226-5.59,2.073-7.658,1.208
	c-1.994-0.834-3.929-3.984-4.181-6.303c-0.397-3.638,3.131-2.891,5.506-3.157C132.171,637.401,134.695,637.007,137.536,636.618z"/>
<path d="M405.106,307.759c-1.435,0.814-2.891,1.591-4.289,2.464c-0.378,0.236-0.575,0.76-1.084,1.473
	c5.815,3.898,3.579,8.562,0.931,12.995c-1.948,3.261-4.239,6.362-6.723,9.235c-0.874,1.011-2.778,1.131-4.212,1.658
	c-0.421-1.493-1.154-2.979-1.187-4.48c-0.042-1.969,0.675-3.947,0.703-5.926c0.096-6.872-6.423-11.121-12.63-8.322
	c-3.568,1.608-7.153,4.468-10.521-0.35c-2.711-3.878-1.368-7.109,3.278-7.794c0.494-0.073,1.021-0.023,1.485-0.176
	c2.95-0.969,7.498-1.15,8.518-3.134c2.728-5.309,0.142-12.284-3.96-15.798c-1.971-1.689-3.35-4.068-4.997-6.134
	c2.81-0.118,5.757-0.822,8.398-0.211c3.515,0.814,6.873,2.489,10.154,4.091c4.413,2.154,7.142,5.076,5.356,10.727
	c-1.341,4.244,1.49,5.914,5.428,6.403c1.998,0.248,3.919,1.119,5.875,1.708C405.456,306.711,405.281,307.235,405.106,307.759z"/>
<path d="M634.137,68.504c-8.38,1.235-9.832,5.44-8.249,12.108c0.632,2.664,1.432,7.267-3.036,8.388
	c-4.226,1.06-6.836-2.03-8.728-5.284c-1.652-2.84-2.836-5.952-4.525-9.586c-1.918,0.988-3.786,2.435-5.87,2.89
	c-2.143,0.468-5.084,0.809-6.641-0.277c-3.505-2.446-2.61-6.437-0.771-9.422c0.816-1.325,3.748-1.816,5.727-1.834
	c2.362-0.021,4.733,0.87,6.89,1.321c0-6.411-0.396-12.315,0.12-18.138c0.449-5.067,1.861-10.059,3.031-15.041
	c0.168-0.714,1.386-1.667,2.083-1.639c0.738,0.029,1.838,0.968,2.086,1.734c2.196,6.774,5.058,13.474,6.116,20.44
	c1.309,8.62,0.653,8.701,8.737,11.719C631.807,66.146,632.323,66.908,634.137,68.504z"/>
<path d="M838.872,212.22c7.454-2.322,14.931-4.649,23-3.869c0.977,0.095,2.464,1.452,2.62,2.404c0.755,4.597,3.586,5.394,7.609,5.09
	c1.423-0.108,2.93,0.889,5.043,1.598c-2.387,2.238-3.897,3.653-5.54,5.193c9.276,8.808,3.292,17.728,0.742,26.42
	c-1.522,5.188-2.037,5.182-5.463,5.749c-1.258-5.644-2.473-11.241-3.773-16.818c-0.297-1.276-0.705-2.594-1.377-3.702
	c-3.543-5.841-6.419-6.414-11.974-2.531c-4.377,3.059-8.12,2.322-10.148-2.129c-1.331-2.921-1.115-5.202,2.837-5.623
	c1.977-0.211,4-0.476,5.86-1.123c1.229-0.427,3.242-1.858,3.108-2.355c-0.47-1.744-1.359-4.131-2.746-4.714
	c-2.945-1.239-6.302-1.497-9.49-2.158C839.078,213.175,838.975,212.698,838.872,212.22z"/>
<path d="M543.113,651.557c-1.029,3.023-1.263,5.368-2.482,6.959c-2.944,3.843-6.3,7.38-9.689,10.845
	c-0.193,0.197-2.794-1.098-3.219-2.133c-2.66-6.478-4.829-7.038-10.081-2.246c-5.181,4.727-10.457,3.786-13.102-2.772
	c-0.76-1.885-0.274-4.706,0.627-6.639c0.429-0.92,3.166-1.017,4.863-1.036c2.752-0.03,5.508,0.311,8.687,0.523
	c-1.113-8.76-4.204-15.702-9.351-21.871c-1.213-1.454-1.535-3.651-2.267-5.506c2.029-0.028,4.318-0.678,6.037,0.039
	c4.428,1.847,9.081,3.716,12.721,6.702c2.657,2.18,4.833,5.966,5.457,9.361c0.903,4.914,2.748,7.14,7.793,6.77
	C540.568,650.448,542.098,651.284,543.113,651.557z"/>
<path d="M967.968,493.503c-0.933-3.283-1.195-5.664-2.255-7.612c-1.837-3.376-1.131-5.616,2.669-5.569
	c3.438,0.043,6.963,0.718,10.244,1.762c1.235,0.393,2.594,2.564,2.676,3.994c0.209,3.652,1.954,4.937,5.334,5.134
	c1.774,0.103,3.514,0.798,6.672,1.568c-2.851,1.646-4.557,2.163-5.499,3.309c-0.911,1.108-1.792,3.125-1.387,4.293
	c3.17,9.142,0.452,17.732-2.521,26.125c-1.081,3.051-4.076,2.147-5.127-0.588c-1.475-3.839-2.223-7.952-3.443-11.898
	c-1.02-3.298-2.062-6.62-3.484-9.755c-1.267-2.792-3.461-3.283-5.224-0.452c-2.627,4.219-5.446,4.189-8.883,1.098
	c-3.524-3.169-4.97-9.457-2.331-12.091c0.906-0.904,2.953-1.014,4.437-0.907C962.085,492.078,964.288,492.749,967.968,493.503z"/>
<path d="M360.299,220.635c-0.933-3.283-1.195-5.664-2.255-7.612c-1.837-3.376-1.131-5.616,2.669-5.569
	c3.438,0.043,6.963,0.718,10.244,1.762c1.235,0.393,2.594,2.564,2.676,3.994c0.209,3.652,1.954,4.937,5.334,5.134
	c1.774,0.103,3.514,0.798,6.672,1.568c-2.851,1.646-4.557,2.163-5.499,3.309c-0.911,1.108-1.792,3.125-1.387,4.293
	c3.17,9.142,0.452,17.732-2.521,26.125c-1.081,3.051-4.076,2.147-5.127-0.588c-1.475-3.839-2.223-7.952-3.443-11.898
	c-1.02-3.298-2.062-6.62-3.484-9.755c-1.267-2.792-3.461-3.283-5.224-0.452c-2.627,4.219-5.446,4.189-8.883,1.098
	c-3.524-3.169-4.97-9.457-2.331-12.091c0.906-0.904,2.953-1.014,4.437-0.907C354.416,219.209,356.619,219.88,360.299,220.635z"/>
<path d="M440.023,49.734c-0.933-3.283-1.195-5.664-2.255-7.612c-1.837-3.376-1.131-5.616,2.669-5.569
	c3.438,0.043,6.963,0.718,10.244,1.762c1.235,0.393,2.594,2.564,2.676,3.994c0.209,3.652,1.954,4.937,5.334,5.134
	c1.774,0.103,3.514,0.798,6.672,1.568c-2.851,1.646-4.557,2.163-5.499,3.309c-0.911,1.108-1.792,3.125-1.387,4.293
	c3.17,9.142,0.452,17.732-2.521,26.125c-1.081,3.051-4.076,2.147-5.127-0.588c-1.475-3.839-2.223-7.952-3.443-11.898
	c-1.02-3.298-2.062-6.62-3.484-9.755c-1.267-2.792-3.461-3.283-5.224-0.452c-2.627,4.219-5.446,4.189-8.883,1.098
	c-3.524-3.169-4.97-9.457-2.331-12.091c0.906-0.904,2.953-1.014,4.437-0.907C434.139,48.308,436.343,48.98,440.023,49.734z"/>
<path d="M296.863,586.464c-3.918,11.81-10.959,18.049-22.813,17.387c-0.224-0.846-0.467-1.226-0.367-1.463
	c3.653-8.706,3.224-9.287-6.479-9.077c-2.482,0.054-5.155,0.411-7.387-0.375c-1.476-0.519-2.323-2.828-3.451-4.335
	c1.391-0.867,2.686-2.051,4.201-2.514c1.541-0.471,3.311-0.135,4.961-0.323c5.656-0.646,7.836-5.327,4.251-9.912
	c-2.212-2.829-5.418-4.862-7.978-7.45c-1.038-1.05-1.543-2.626-2.291-3.963c1.353-0.442,2.971-1.599,4.017-1.212
	c7.433,2.755,14.843,5.622,22.015,8.979c1.313,0.614,2.189,3.674,2.069,5.527c-0.266,4.123,1.013,6.273,5.263,6.817
	C294.484,584.756,295.958,586.007,296.863,586.464z"/>
<path d="M919.786,305.851c-5.034-1.976-10.068-3.953-15.531-6.097c6.853-4.417,21.292-3.905,26.653,0.177
	c1.433,1.091,3.575,1.353,5.445,1.74c1.656,0.342,3.385,0.328,5.411,0.499c-3.455,5.807-3.367,5.756,0.029,11.661
	c0.875,1.522,1.386,3.467,1.407,5.226c0.072,5.984-0.043,11.976-0.347,17.953c-0.064,1.248-1.241,2.439-1.906,3.657
	c-1.157-0.812-2.741-1.375-3.387-2.485c-1.748-3.002-3.106-6.232-4.601-9.379c-1.707-3.593-3.316-7.235-5.113-10.782
	c-2.07-4.087-4.514-3.999-7.697-0.866c-3.77,3.71-7.532,3.07-10.054-1.413c-1.58-2.808-1.494-5.089,2.352-5.9
	c2.368-0.499,4.685-1.236,7.025-1.866C919.578,307.267,919.682,306.559,919.786,305.851z"/>
<path d="M224.047,343.869c-5.034-1.976-10.068-3.953-15.531-6.097c6.853-4.417,21.292-3.905,26.653,0.177
	c1.433,1.091,3.575,1.353,5.445,1.74c1.656,0.342,3.385,0.328,5.411,0.499c-3.455,5.807-3.367,5.756,0.029,11.661
	c0.875,1.522,1.386,3.467,1.407,5.226c0.072,5.984-0.043,11.976-0.347,17.953c-0.064,1.248-1.241,2.439-1.906,3.657
	c-1.157-0.812-2.741-1.375-3.387-2.485c-1.748-3.002-3.106-6.232-4.601-9.379c-1.707-3.593-3.316-7.235-5.113-10.782
	c-2.07-4.087-4.514-3.999-7.697-0.866c-3.77,3.71-7.532,3.07-10.054-1.413c-1.58-2.808-1.494-5.089,2.352-5.9
	c2.368-0.499,4.685-1.236,7.025-1.866C223.838,345.285,223.943,344.577,224.047,343.869z"/>
<path d="M876.514,139.463c-5.034-1.976-10.068-3.953-15.531-6.097c6.853-4.417,21.292-3.905,26.653,0.177
	c1.433,1.091,3.575,1.353,5.445,1.74c1.656,0.342,3.385,0.328,5.411,0.499c-3.455,5.807-3.367,5.756,0.029,11.661
	c0.875,1.522,1.386,3.467,1.407,5.226c0.072,5.984-0.043,11.976-0.347,17.953c-0.064,1.248-1.241,2.439-1.906,3.657
	c-1.157-0.812-2.741-1.375-3.387-2.485c-1.748-3.002-3.106-6.232-4.601-9.379c-1.707-3.593-3.316-7.235-5.113-10.782
	c-2.07-4.087-4.514-3.999-7.697-0.866c-3.77,3.71-7.532,3.07-10.054-1.413c-1.58-2.808-1.494-5.089,2.352-5.9
	c2.368-0.499,4.685-1.236,7.025-1.866C876.305,140.879,876.41,140.171,876.514,139.463z"/>
<path d="M24.387,399.445c-1.998-9.934-3.83-18.824-5.518-27.742c-0.181-0.958,0.165-2.562,0.828-2.984
	c0.687-0.437,2.454-0.192,3.068,0.428c5.78,5.848,12.693,10.981,13.237,20.295c0.217,3.714,1.541,6.388,6.136,5.957
	c2.205-0.207,5.379-0.375,2.857,3.652c-0.283,0.452,0.411,1.663,0.855,2.399c2.299,3.814,1.375,5.883-3.213,5.978
	c-2.933,0.061-5.979-0.517-8.808-1.365c-3.786-1.135-6.761-0.827-9.187,2.631c-1.952,2.782-4.344,4.623-7.983,2.335
	c-3.313-2.083-6.413-7.659-5.146-10.54c0.474-1.076,2.46-2.054,3.773-2.075C18.03,398.369,20.784,398.99,24.387,399.445z"/>
<path d="M949.296,409.632c-1.998-9.934-3.83-18.824-5.518-27.742c-0.181-0.958,0.165-2.562,0.828-2.984
	c0.687-0.437,2.454-0.192,3.068,0.428c5.78,5.848,12.693,10.981,13.237,20.295c0.217,3.714,1.541,6.388,6.136,5.957
	c2.205-0.207,5.379-0.375,2.857,3.652c-0.283,0.452,0.411,1.663,0.855,2.399c2.299,3.814,1.375,5.883-3.213,5.978
	c-2.933,0.061-5.979-0.517-8.808-1.365c-3.786-1.135-6.761-0.827-9.187,2.631c-1.952,2.782-4.344,4.623-7.983,2.335
	c-3.313-2.083-6.413-7.659-5.146-10.54c0.474-1.076,2.46-2.054,3.773-2.075C942.939,408.555,945.694,409.176,949.296,409.632z"/>
<path d="M105.755,716.878c4.865-5.214,16.111-6.91,20.212-3.917c13.748,10.037,17.479,21.111,10.29,33.204
	c-0.813-2.059-1.624-3.496-1.93-5.033c-0.485-2.439-0.221-5.09-1.027-7.388c-1.008-2.874-2.401-5.749-6.526-2.731
	c-1.125,0.823-4.079,0.259-5.415-0.725c-0.832-0.613-0.936-3.852-0.102-4.797c2.943-3.335,1.371-5.284-1.685-6.452
	c-2.415-0.923-5.169-0.972-7.779-1.37C110.086,717.408,108.368,717.217,105.755,716.878z"/>
<path d="M665.668,366.736c4.865-5.214,16.111-6.91,20.212-3.917c13.748,10.037,17.479,21.111,10.29,33.204
	c-0.813-2.059-1.624-3.496-1.93-5.033c-0.485-2.439-0.221-5.09-1.027-7.388c-1.008-2.874-2.401-5.749-6.526-2.731
	c-1.125,0.823-4.079,0.259-5.415-0.725c-0.832-0.613-0.936-3.852-0.102-4.797c2.943-3.335,1.371-5.284-1.685-6.452
	c-2.415-0.923-5.169-0.972-7.779-1.37C669.999,367.266,668.281,367.075,665.668,366.736z"/>
</svg>
