<?xml version="1.0" encoding="utf-8"?>
<!-- Generator: Adobe Illustrator 17.1.0, SVG Export Plug-In . SVG Version: 6.00 Build 0)  -->
<!DOCTYPE svg PUBLIC "-//W3C//DTD SVG 1.1//EN" "http://www.w3.org/Graphics/SVG/1.1/DTD/svg11.dtd">
<svg version="1.1" id="Layer_1" xmlns="http://www.w3.org/2000/svg" xmlns:xlink="http://www.w3.org/1999/xlink" x="0px" y="0px"
	 viewBox="0 0 960 284.529" enable-background="new 0 0 960 284.529" xml:space="preserve">
<g>
	<path fill="#FFFFFF" d="M208.615,109.733c-20.565,0-24.402,15.606-25.016,35.606h49.112
		C232.251,125.339,227.493,109.733,208.615,109.733z"/>
	<path fill="#FFFFFF" d="M296.398,109.733c-20.565,0-24.402,15.606-25.016,35.606h49.112
		C320.034,125.339,315.276,109.733,296.398,109.733z"/>
	<path fill="#FFFFFF" d="M743.223,109.684c-16.729,0-23.174,16.421-23.174,46.043c0,28.7,6.446,45.735,23.174,45.735
		c20.873,0,27.625-17.956,27.625-45.735C770.848,127.947,763.022,109.684,743.223,109.684z"/>
	<path fill="#FFFFFF" d="M464.919,121.723l-0.193-24.552c-9.973,0.309-17.78,2.748-17.706,12.185
		C447.101,119.637,455.171,121.492,464.919,121.723z"/>
	<path fill="#FFFFFF" d="M381.725,109.684c-16.729,0-23.175,16.421-23.175,46.043c0,28.7,6.446,45.735,23.175,45.735
		c20.872,0,27.625-17.956,27.625-45.735C409.35,127.947,401.523,109.684,381.725,109.684z"/>
	<path fill="#FFFFFF" d="M0-120.661v560h960v-560H0z M622.138,92.495c6.293,0,11.817,5.219,11.817,11.357
		c0,6.292-5.524,11.51-11.817,11.51c-6.754,0-11.971-5.218-11.971-11.51C610.167,97.713,615.384,92.495,622.138,92.495z
		 M468.59,91.003l1.535-0.013l0.242,30.766c12.505-0.175,22.622-1.712,22.528-13.758c-0.077-9.744-6.384-11.69-10.604-11.657
		l1.109-5.379c5.985-0.047,14.838,3.719,14.944,17.146c0.131,16.802-12.66,19.665-29.539,19.798
		c-14.425,0.113-27.104-2.397-27.231-18.509C441.452,94.054,454.396,91.114,468.59,91.003z M160,111.219
		c0,0-5.066-1.534-10.13-1.534c-16.729,0-22.87,9.362-22.87,24.403v16.252h27v10h-27v51h-12v-51h-6v-10h6v-16.406
		c0-20.872,8.534-35.145,33.703-35.145c6.139,0,11.297,1.381,11.297,1.381V111.219z M245,156.339h-61.554
		c0.153,25,3.069,45.199,27.165,45.199c19.491,0,23.481-12.623,23.481-21.064l10.743,2.283c0,11.971-7.673,29.611-34.532,29.611
		c-33.611,0-39.136-25.635-39.136-59.399c0-28.854,5.224-54.179,37.453-54.179c30.695,0,36.379,25.935,36.379,54.328V156.339z
		 M333,156.339h-61.772c0.153,25,3.069,45.199,27.165,45.199c19.491,0,23.481-12.623,23.481-21.064l10.743,2.283
		c0,11.971-7.673,29.611-34.532,29.611c-33.611,0-39.136-25.635-39.136-59.399c0-28.854,5.333-54.179,37.562-54.179
		c30.695,0,36.488,25.935,36.488,54.328V156.339z M420,211.339h-11v-16h-1.031c-2.456,8-11.357,16.951-26.244,16.951
		c-24.709,0-34.992-20.224-34.992-56.597c0-37.294,10.437-56.934,34.992-56.934c14.887,0,23.021,8.58,25.477,16.58H408v-35h12
		V211.339z M433.057,168.245l18.569-0.146l-0.003-0.307c-2.691-0.669-9.622-3.914-9.702-14.118
		c-0.1-12.659,8.767-16.949,19.125-17.03l36.905-0.289l0.048,6.06l-35.83,0.281c-7.826,0.062-14.864,2.726-14.789,12.24
		c0.076,9.743,10.459,12.885,15.523,12.845l35.293-0.277l0.048,6.062l-65.14,0.511L433.057,168.245z M482.14,204.308l-29.692,0.233
		l0.039,4.987l-5.371,0.042l-0.039-4.987l-8.44,0.066l-0.048-6.061l8.44-0.066l-0.119-15.115l5.371-0.042l0.119,15.115l27.927-0.219
		c8.287-0.065,13.251-3.173,13.186-11.383c-0.017-2.226-0.571-4.37-0.807-5.135l5.523-0.043c0.236,0.765,0.716,3.14,0.737,5.749
		C499.063,199.879,492.268,204.228,482.14,204.308z M558.144,212.29c-15.346,0-24.555-8.951-27.011-16.951H531v16h-12v-131h12v35
		h0.901c2.455-8,10.897-16.563,26.243-16.563c23.943,0,34.225,19.616,34.225,56.911C592.369,192.06,582.24,212.29,558.144,212.29z
		 M639,134.339h-11v66h11v11h-33v-11h10v-66h-10v-11h33V134.339z M704,110.605c-1-0.153-2.919-0.614-6.603-0.614
		c-23.943,0-28.397,23.635-28.397,38.215v63.133h-13v-111h11v20h1.025c1.688-6,8.473-21.596,30.266-21.596
		c2.609,0,4.709,0.658,5.709,0.811V110.605z M782,211.339h-12v-16h-0.533c-2.455,8-11.357,16.951-26.244,16.951
		c-24.709,0-34.992-20.224-34.992-56.597c0-37.294,10.436-56.934,34.992-56.934c14.887,0,23.022,8.58,25.477,16.58h0.3v-35h13
		V211.339z M833.307,212.512c-25.63,0.307-35.145-15.347-35.145-29.621l11.51-1.842c0,10.283,6.139,20.566,23.942,20.566
		c18.571,0,22.869-10.129,22.869-19.337c0-29.621-56.172-16.422-56.172-55.097c0-13.506,9.516-28.393,32.997-28.393
		c23.942,0,34.992,12.892,34.992,31.462l-11.664,1.842c0-13.353-6.906-22.407-23.022-22.407c-15.194,0-21.178,8.441-21.178,17.65
		c0,26.705,56.325,15.347,56.325,56.018C868.76,198.699,859.858,212.205,833.307,212.512z"/>
	<path fill="#FFFFFF" d="M557.377,109.684c-19.797,0-27.625,18.263-27.625,46.043c0,27.779,6.754,45.735,27.625,45.735
		c16.73,0,23.176-17.036,23.176-45.735C580.553,126.106,574.107,109.684,557.377,109.684z"/>
</g>
</svg>
